<svg width="100" height="100" viewBox="0 0 100 100" fill="none" xmlns="http://www.w3.org/2000/svg">
<rect width="100" height="100" rx="10" fill="#FFDD00"/>
<circle cx="62.6246" cy="70.713" r="3.65042" stroke="#3D3D3D" stroke-width="2.3"/>
<path fill-rule="evenodd" clip-rule="evenodd" d="M39.8422 22.7837C40.2158 23.1573 40.7171 23.3738 41.2436 23.3905L34.8709 30.3858C34.1969 31.1243 33.8235 32.0883 33.8242 33.0882V35.1013C33.8242 36.1658 34.2471 37.1868 34.9999 37.9396C35.087 38.0267 35.1777 38.1094 35.2716 38.1875C35.2068 38.2448 35.1436 38.3043 35.0821 38.3658C34.2767 39.1712 33.8242 40.2635 33.8242 41.4025C33.8242 42.5415 34.2767 43.6338 35.0821 44.4392C35.1818 44.5389 35.2859 44.6332 35.3939 44.7219C35.3005 44.8016 35.2103 44.8856 35.1235 44.9738C34.3322 45.7773 33.8886 46.8598 33.8886 47.9875C33.8886 49.1153 34.3322 50.1978 35.1235 51.0013C35.2089 51.088 35.2977 51.1708 35.3894 51.2494C35.283 51.337 35.1804 51.4301 35.0821 51.5284C34.2767 52.3338 33.8242 53.4261 33.8242 54.5651C33.8242 55.7041 34.2767 56.7964 35.0821 57.6018C35.1442 57.6639 35.208 57.7239 35.2735 57.7818C35.1789 57.8604 35.0876 57.9436 34.9999 58.0313C34.2471 58.784 33.8242 59.805 33.8242 60.8696V80.9398C33.8242 82.0044 34.2471 83.0254 34.9999 83.7782C35.7527 84.531 36.7737 84.9539 37.8383 84.9539H59.8734C60.938 84.9539 61.959 84.531 62.7117 83.7782C63.4645 83.0254 63.8874 82.0044 63.8874 80.9398V75.3457C63.4851 75.4551 63.0617 75.5135 62.6246 75.5135C62.3715 75.5135 62.123 75.4939 61.8804 75.4562V80.9398C61.8804 81.4722 61.669 81.9826 61.2926 82.359C60.9162 82.7354 60.4057 82.9469 59.8734 82.9469H37.8383C37.306 82.9469 36.7955 82.7354 36.4191 82.359C36.0427 81.9826 35.8312 81.4722 35.8312 80.9398V60.8696C35.8312 60.3373 36.0427 59.8268 36.4191 59.4504C36.7955 59.0741 37.306 58.8626 37.8383 58.8626H59.8734C60.4057 58.8626 60.9162 59.0741 61.2926 59.4504C61.669 59.8268 61.8804 60.3373 61.8804 60.8696V65.97C62.123 65.9322 62.3715 65.9127 62.6246 65.9127C63.0617 65.9127 63.4851 65.9711 63.8874 66.0805V60.8696C63.8874 59.805 63.4645 58.784 62.7117 58.0313C62.6242 57.9437 62.5331 57.8607 62.4387 57.7822C62.5043 57.7242 62.5683 57.6641 62.6306 57.6018C63.436 56.7964 63.8884 55.7041 63.8884 54.5651C63.8884 53.4261 63.436 52.3338 62.6306 51.5284C62.532 51.4298 62.4292 51.3366 62.3225 51.2488C62.414 51.1703 62.5025 51.0878 62.5877 51.0013C63.379 50.1978 63.8226 49.1153 63.8226 47.9875C63.8226 46.8598 63.379 45.7773 62.5877 44.9738C62.5011 44.8859 62.4111 44.8021 62.318 44.7225C62.4263 44.6336 62.5307 44.5391 62.6306 44.4392C63.436 43.6338 63.8884 42.5415 63.8884 41.4025C63.8884 40.2635 63.436 39.1712 62.6306 38.3658C62.5691 38.3043 62.5058 38.2448 62.4411 38.1875C62.5351 38.1093 62.6256 38.0267 62.7124 37.94C63.0852 37.5672 63.381 37.1247 63.5828 36.6376C63.7846 36.1505 63.8884 35.6285 63.8884 35.1013V33.0892C63.8891 32.089 63.5157 31.1247 62.8418 30.3858L56.469 23.3904C56.9945 23.3731 57.4949 23.1567 57.8679 22.7837C58.2563 22.3953 58.4749 21.8686 58.4757 21.3193V16.7754C58.4749 16.226 58.2563 15.6994 57.8679 15.311C57.4794 14.9225 56.9528 14.7039 56.4034 14.7031H41.3066C40.7573 14.7039 40.2306 14.9225 39.8422 15.311C39.4537 15.6994 39.2351 16.226 39.2344 16.7754V21.3193C39.2351 21.8686 39.4537 22.3953 39.8422 22.7837ZM41.3066 16.7101L41.2414 16.7754V21.3193L56.4044 21.3845L56.4697 16.7764L41.3066 16.7101ZM36.3541 31.7365L43.9537 23.3943L53.758 23.3933L61.3576 31.7355C61.6944 32.1055 61.8808 32.5879 61.8804 33.0882V35.1002C61.8804 35.6325 61.6689 36.143 61.2926 36.5194C60.9162 36.8958 60.4057 37.1073 59.8734 37.1073H37.8383C37.306 37.1073 36.7955 36.8958 36.4191 36.5194C36.0427 36.143 35.8312 35.6325 35.8312 35.1002V33.0882C35.8311 32.5882 36.0175 32.1062 36.3541 31.7365ZM59.5939 50.2705C59.6234 50.2705 59.6528 50.2709 59.6822 50.2715C60.2478 50.2376 60.782 49.9947 61.18 49.5884C61.5987 49.1608 61.8333 48.5861 61.8333 47.9875C61.8333 47.389 61.5987 46.8143 61.18 46.3867C60.7612 45.9591 60.1916 45.7126 59.5932 45.7H38.118C37.5196 45.7126 36.95 45.9591 36.5312 46.3867C36.1125 46.8143 35.8779 47.389 35.8779 47.9875C35.8779 48.5861 36.1125 49.1608 36.5312 49.5884C36.9293 49.9948 37.4636 50.2377 38.0294 50.2715C38.0592 50.2709 38.0889 50.2705 38.1187 50.2705H59.5939ZM36.5012 52.9476C36.9076 52.5412 37.4512 52.3035 38.0231 52.2796C38.0547 52.2808 38.0863 52.2816 38.118 52.2821H59.5932C59.6251 52.2816 59.657 52.2807 59.6889 52.2795C60.261 52.3033 60.8049 52.541 61.2114 52.9476C61.6404 53.3766 61.8814 53.9584 61.8814 54.5651C61.8814 55.1718 61.6404 55.7536 61.2114 56.1826C60.7824 56.6116 60.2006 56.8526 59.5939 56.8526H38.1187C37.5121 56.8526 36.9302 56.6116 36.5012 56.1826C36.0722 55.7536 35.8312 55.1718 35.8312 54.5651C35.8312 53.9584 36.0722 53.3766 36.5012 52.9476ZM38.1187 39.116C37.5121 39.116 36.9302 39.357 36.5012 39.786C36.0722 40.215 35.8312 40.7968 35.8312 41.4035C35.8312 42.0102 36.0722 42.592 36.5012 43.021C36.9302 43.45 37.5121 43.691 38.1187 43.691H59.5939C60.2006 43.691 60.7824 43.45 61.2114 43.021C61.6404 42.592 61.8814 42.0102 61.8814 41.4035C61.8814 40.7968 61.6404 40.215 61.2114 39.786C60.7824 39.357 60.2006 39.116 59.5939 39.116H38.1187Z" fill="#3D3D3D"/>
</svg>
