<svg width="120" height="120" viewBox="0 0 120 120" fill="none" xmlns="http://www.w3.org/2000/svg">
<path d="M38.6627 77.579H38.6682C38.6728 77.579 38.6774 77.5781 38.6819 77.5781H102.422C103.991 77.5781 105.371 76.5372 105.802 75.0284L119.865 25.8096C120.168 24.7485 119.955 23.6078 119.291 22.7271C118.627 21.8463 117.588 21.3281 116.484 21.3281H30.5548L28.0417 10.0186C27.6837 8.41003 26.2573 7.26562 24.6094 7.26562H3.51563C1.57379 7.26562 0 8.83942 0 10.7812C0 12.7231 1.57379 14.2969 3.51563 14.2969H21.7896C22.2345 16.301 33.8159 68.4183 34.4824 71.4166C30.7462 73.0408 28.125 76.7661 28.125 81.0938C28.125 86.9092 32.8564 91.6406 38.6719 91.6406H102.422C104.364 91.6406 105.938 90.0668 105.938 88.125C105.938 86.1832 104.364 84.6094 102.422 84.6094H38.6719C36.7337 84.6094 35.1563 83.0319 35.1563 81.0938C35.1563 79.1583 36.7282 77.5836 38.6627 77.579ZM111.823 28.3594L99.7696 70.5469H41.4917L32.1167 28.3594H111.823Z" fill="#7B7B7B"/>
<path d="M35.1562 102.188C35.1562 108.003 39.8877 112.734 45.7031 112.734C51.5186 112.734 56.25 108.003 56.25 102.188C56.25 96.3721 51.5186 91.6406 45.7031 91.6406C39.8877 91.6406 35.1562 96.3721 35.1562 102.188ZM45.7031 98.6719C47.6413 98.6719 49.2188 100.249 49.2188 102.188C49.2188 104.126 47.6413 105.703 45.7031 105.703C43.765 105.703 42.1875 104.126 42.1875 102.188C42.1875 100.249 43.765 98.6719 45.7031 98.6719Z" fill="#7B7B7B"/>
<path d="M84.8438 102.188C84.8438 108.003 89.5752 112.734 95.3906 112.734C101.206 112.734 105.938 108.003 105.938 102.188C105.938 96.3721 101.206 91.6406 95.3906 91.6406C89.5752 91.6406 84.8438 96.3721 84.8438 102.188ZM95.3906 98.6719C97.3288 98.6719 98.9062 100.249 98.9062 102.188C98.9062 104.126 97.3288 105.703 95.3906 105.703C93.4525 105.703 91.875 104.126 91.875 102.188C91.875 100.249 93.4525 98.6719 95.3906 98.6719Z" fill="#7B7B7B"/>
</svg>
