<svg width="100" height="100" viewBox="0 0 100 100" fill="none" xmlns="http://www.w3.org/2000/svg">
<rect width="100" height="100" rx="10" fill="#FFDD00"/>
<path d="M70.1466 40.9553C67.2348 40.9553 64.8672 38.5876 64.8672 35.6759C64.8672 32.7641 67.2348 30.3965 70.1466 30.3965C73.0584 30.3965 75.426 32.7641 75.426 35.6759C75.426 38.5876 73.0584 40.9553 70.1466 40.9553ZM70.1466 33.7788C69.1025 33.7788 68.2495 34.6318 68.2495 35.6759C68.2495 36.72 69.1025 37.573 70.1466 37.573C71.1907 37.573 72.0437 36.72 72.0437 35.6759C72.0437 34.6318 71.1907 33.7788 70.1466 33.7788Z" fill="#3D3D3D"/>
<path d="M71.2482 74.7057H24.7334V24.9263H71.2482V32.088C71.2482 32.691 70.7482 33.191 70.1452 33.191C69.5423 33.191 69.0423 32.691 69.0423 32.088V27.1322H26.9393V72.4998H69.0423V39.2645C69.0423 38.6616 69.5423 38.1616 70.1452 38.1616C70.7482 38.1616 71.2482 38.6616 71.2482 39.2645V74.7057Z" fill="#3D3D3D"/>
<path d="M71.0535 27.1337H24.9359L23.5829 20.3543C23.4506 19.6925 23.6123 19.0014 24.0535 18.472C24.48 17.9426 25.127 17.6484 25.8035 17.6484H70.2005C70.877 17.6484 71.5241 17.9573 71.9506 18.472C72.377 19.0014 72.5535 19.6778 72.4211 20.3543L71.0535 27.1337ZM26.7447 24.9278H69.2447L70.2447 19.9279L62.2006 19.869H25.7888L26.7447 24.9278Z" fill="#3D3D3D"/>
<path d="M70.1901 81.9882H25.793C25.1166 81.9882 24.4695 81.6794 24.043 81.1647C23.6166 80.6353 23.4401 79.9588 23.5724 79.2823L24.9254 72.5029H71.0431L72.4107 79.2823C72.5431 79.9441 72.3666 80.6353 71.9401 81.1647C71.5137 81.6794 70.8813 81.9882 70.1901 81.9882ZM26.7489 74.7088L25.7489 79.7088L70.2048 79.7676L69.249 74.6941H26.7489V74.7088Z" fill="#3D3D3D"/>
<path d="M47.9994 66.9572C38.5435 66.9572 30.8523 59.266 30.8523 49.8101C30.8523 40.3542 38.5435 32.6631 47.9994 32.6631C57.4552 32.6631 65.1464 40.3542 65.1464 49.8101C65.1464 59.266 57.4552 66.9572 47.9994 66.9572ZM47.9994 34.8837C39.7641 34.8837 33.0582 41.5896 33.0582 49.8249C33.0582 58.0601 39.7641 64.766 47.9994 64.766C56.2346 64.766 62.9405 58.0601 62.9405 49.8249C62.9405 41.5896 56.2346 34.8837 47.9994 34.8837Z" fill="#3D3D3D"/>
<path d="M47.9982 57.8199C47.3953 57.8199 46.8953 57.3199 46.8953 56.7169V42.9081C46.8953 42.3052 47.3953 41.8052 47.9982 41.8052C48.6011 41.8052 49.1011 42.3052 49.1011 42.9081V56.7169C49.1011 57.3346 48.6011 57.8199 47.9982 57.8199Z" fill="#3D3D3D"/>
<path d="M47.9926 45.1159L44.875 41.3218C44.4926 40.8512 44.5515 40.16 45.0221 39.7629C45.4927 39.3806 46.1838 39.4541 46.5809 39.91L47.9926 41.6306L49.4044 39.91C49.7868 39.4394 50.4926 39.3659 50.9632 39.7629C51.4338 40.1453 51.5074 40.8365 51.1103 41.3218L47.9926 45.1159Z" fill="#3D3D3D"/>
<path d="M50.2493 60.1181C49.9258 60.1181 49.6169 59.9857 49.3964 59.721L47.9846 58.0004L46.5728 59.721C46.1905 60.1916 45.4846 60.2652 45.014 59.8681C44.5434 59.4857 44.4699 58.7946 44.8669 58.3093L47.9846 54.5151L51.1022 58.3093C51.4846 58.7798 51.4258 59.471 50.9552 59.8681C50.7493 60.0299 50.4993 60.1181 50.2493 60.1181Z" fill="#3D3D3D"/>
<path d="M42.0145 54.3825C41.6322 54.3825 41.2645 54.1913 41.0586 53.8237C40.7498 53.2943 40.941 52.6178 41.4557 52.3237L53.4116 45.4119C53.941 45.1031 54.6175 45.2943 54.9116 45.809C55.2057 46.3237 55.0292 47.0149 54.5145 47.309L42.5586 54.2207C42.3822 54.3384 42.2057 54.3825 42.0145 54.3825Z" fill="#3D3D3D"/>
<path d="M41.1598 57.4848C41.0274 57.4848 40.8951 57.4554 40.7627 57.4113C40.1892 57.1907 39.9098 56.5583 40.1157 55.9848L40.8951 53.9113L38.7039 53.5583C38.101 53.4554 37.6892 52.8966 37.7921 52.2936C37.8951 51.6907 38.4539 51.2936 39.0569 51.3819L43.9098 52.176L42.1745 56.7789C42.0274 57.2054 41.601 57.4848 41.1598 57.4848Z" fill="#3D3D3D"/>
<path d="M57.0868 48.2928C57.028 48.2928 56.9691 48.2928 56.9103 48.2781L52.0574 47.4839L53.7927 42.881C54.0133 42.3075 54.6456 42.0281 55.2191 42.234C55.7927 42.4545 56.0721 43.0869 55.8662 43.6604L55.0868 45.734L57.278 46.0869C57.8809 46.1898 58.2927 46.7487 58.1897 47.3516C58.0868 47.9104 57.6162 48.2928 57.0868 48.2928Z" fill="#3D3D3D"/>
<path d="M53.9846 54.3788C53.7934 54.3788 53.6022 54.3347 53.4404 54.2318L41.4846 47.32C40.9552 47.0112 40.7787 46.3347 41.0875 45.82C41.3963 45.2906 42.0728 45.1141 42.5875 45.423L54.5434 52.3347C55.0728 52.6435 55.2493 53.32 54.9404 53.8347C54.7346 54.1877 54.3669 54.3788 53.9846 54.3788Z" fill="#3D3D3D"/>
<path d="M54.8377 57.4888C54.3965 57.4888 53.9701 57.2241 53.8083 56.7682L52.073 52.1653L56.9259 51.3711C57.5289 51.2829 58.0877 51.68 58.1906 52.2829C58.2936 52.8859 57.8818 53.4447 57.2789 53.5476L55.0877 53.9005L55.8671 55.9741C56.0877 56.5476 55.7936 57.18 55.2201 57.4006C55.0877 57.4594 54.9553 57.4888 54.8377 57.4888Z" fill="#3D3D3D"/>
<path d="M38.9102 48.2957C38.3808 48.2957 37.9102 47.9133 37.8219 47.3692C37.719 46.7663 38.1308 46.2074 38.7337 46.1045L40.9249 45.7515L40.1455 43.678C39.9249 43.1045 40.219 42.4721 40.7925 42.2515C41.366 42.0457 41.9984 42.3251 42.219 42.8986L43.9543 47.5015L39.1014 48.2957C39.0278 48.281 38.969 48.2957 38.9102 48.2957Z" fill="#3D3D3D"/>
</svg>
