<svg width="100" height="100" viewBox="0 0 100 100" fill="none" xmlns="http://www.w3.org/2000/svg">
<rect width="100" height="100" rx="10" fill="#FFDD00"/>
<path d="M74.1853 76.5879H66.5088C65.9771 76.5949 65.4553 76.4434 65.0101 76.1527C64.5648 75.862 64.2162 75.4452 64.0088 74.9555L63.1706 72.9555H36.4794L35.6412 74.9555C35.4345 75.4487 35.0841 75.8682 34.6355 76.1594C34.187 76.4506 33.6611 76.5999 33.1265 76.5879H25.5235C25.1721 76.5898 24.8236 76.5225 24.4982 76.3898C24.1727 76.2571 23.8766 76.0615 23.6267 75.8144C23.3768 75.5672 23.178 75.2732 23.0417 74.9492C22.9054 74.6252 22.8343 74.2776 22.8324 73.9261V59.2202L21.6559 57.2496C20.8528 55.9038 20.4879 54.3416 20.6118 52.7792C20.7356 51.2168 21.342 49.7316 22.3471 48.5291L22.6706 48.1173C23.6667 46.9192 25.0081 46.0576 26.5119 45.6498C28.0157 45.2419 29.6086 45.3079 31.0735 45.8385C32.5385 46.3692 33.8041 47.3387 34.6978 48.615C35.5916 49.8913 36.0699 51.4121 36.0677 52.9702V63.4849H63.6118V52.9702C63.6131 51.4156 64.0929 49.8991 64.9859 48.6265C65.8789 47.354 67.1419 46.3871 68.6034 45.8571C70.0649 45.3271 71.6541 45.2597 73.1552 45.664C74.6563 46.0684 75.9966 46.9249 76.9941 48.1173L77.3324 48.5291C78.3312 49.7352 78.9324 51.2208 79.0535 52.7821C79.1746 54.3434 78.8097 55.9039 78.0088 57.2496L76.8471 59.2202V73.9261C76.8432 74.6309 76.5615 75.3056 76.0632 75.804C75.5648 76.3023 74.8901 76.584 74.1853 76.5879V76.5879ZM35.0235 70.7055H64.6706L66.1412 74.0585C66.1779 74.1411 66.2377 74.2114 66.3133 74.2609C66.3889 74.3105 66.4772 74.3372 66.5677 74.3379H74.2441C74.365 74.3379 74.481 74.2898 74.5665 74.2044C74.652 74.1189 74.7 74.0029 74.7 73.882V58.6761L76.1706 56.1908C76.7443 55.2394 77.006 54.1323 76.919 53.0247C76.832 51.9171 76.4006 50.8645 75.6853 50.0143V50.0143L75.3618 49.6026C74.6548 48.7571 73.7046 48.1498 72.6404 47.8631C71.5762 47.5764 70.4496 47.6242 69.4135 48.0001C68.3775 48.3759 67.4822 49.0616 66.8494 49.964C66.2166 50.8663 65.8769 51.9416 65.8765 53.0438V65.7644H33.8912V53.0438C33.8907 51.9416 33.551 50.8663 32.9182 49.964C32.2854 49.0616 31.3902 48.3759 30.3541 48.0001C29.3181 47.6242 28.1914 47.5764 27.1272 47.8631C26.063 48.1498 25.1129 48.7571 24.4059 49.6026L24.0677 50.0143C23.3584 50.8675 22.9308 51.9194 22.8439 53.0255C22.757 54.1316 23.015 55.2374 23.5824 56.1908L25.053 58.6761V73.9261C25.053 74.047 25.101 74.163 25.1865 74.2485C25.272 74.334 25.3879 74.382 25.5088 74.382H33.1265C33.2169 74.3813 33.3052 74.3546 33.3808 74.305C33.4565 74.2555 33.5162 74.1852 33.553 74.1026L35.0235 70.7055Z" fill="#3D3D3D"/>
<path d="M67.2004 49.0878C66.9079 49.0878 66.6274 48.9716 66.4205 48.7648C66.2137 48.5579 66.0975 48.2774 66.0975 47.9849V44.0878C66.1014 40.6042 64.8211 37.2413 62.5015 34.6422C60.1818 32.0432 56.9856 30.3903 53.5239 29.9996C53.3791 29.987 53.2381 29.946 53.1091 29.879C52.9801 29.812 52.8656 29.7202 52.772 29.6089C52.6785 29.4976 52.6078 29.369 52.564 29.2304C52.5201 29.0918 52.504 28.9459 52.5166 28.801C52.5291 28.6562 52.5701 28.5153 52.6371 28.3862C52.7041 28.2572 52.7959 28.1427 52.9072 28.0491C53.0185 27.9556 53.1471 27.8849 53.2858 27.8411C53.4244 27.7972 53.5703 27.7811 53.7151 27.7937C57.7137 28.2489 61.4048 30.1599 64.0845 33.1624C66.7643 36.1649 68.2451 40.0487 68.2445 44.0731V47.9702C68.2451 48.2543 68.1375 48.5279 67.9436 48.7355C67.7496 48.9432 67.4839 49.0691 67.2004 49.0878Z" fill="#3D3D3D"/>
<path d="M32.5087 49.088C32.2162 49.088 31.9357 48.9718 31.7288 48.7649C31.522 48.5581 31.4058 48.2775 31.4058 47.985V44.088C31.4004 40.0488 32.8887 36.1502 35.5845 33.1423C38.2803 30.1343 41.9931 28.2293 46.0087 27.7939C46.3012 27.7627 46.5942 27.8489 46.8231 28.0337C47.052 28.2185 47.1981 28.4866 47.2293 28.7791C47.2605 29.0717 47.1742 29.3646 46.9895 29.5935C46.8047 29.8224 46.5365 29.9685 46.244 29.9997C42.7692 30.3706 39.555 32.0158 37.222 34.6177C34.8891 37.2195 33.6028 40.5934 33.6117 44.088V47.985C33.6078 48.2764 33.4904 48.5547 33.2844 48.7607C33.0784 48.9667 32.8001 49.0842 32.5087 49.088V49.088Z" fill="#3D3D3D"/>
<path d="M35.3029 61.4702C35.1331 61.4708 34.9654 61.4328 34.8125 61.3589C34.6596 61.285 34.5255 61.1772 34.4205 61.0438C34.2434 60.8116 34.1657 60.5186 34.2043 60.2291C34.2429 59.9397 34.3947 59.6773 34.6264 59.4996L35.4205 58.8673C37.7387 57.0682 40.5891 56.0905 43.5235 56.0879H56.2294C59.5267 56.0895 62.7047 57.3219 65.1411 59.5438C65.2636 59.6357 65.3656 59.7521 65.4405 59.8856C65.5155 60.0192 65.5619 60.1668 65.5767 60.3192C65.5915 60.4717 65.5744 60.6255 65.5265 60.7709C65.4785 60.9164 65.4009 61.0502 65.2984 61.164C65.1959 61.2778 65.0708 61.369 64.9311 61.4318C64.7915 61.4946 64.6402 61.5276 64.4871 61.5287C64.334 61.5298 64.1823 61.4991 64.0417 61.4384C63.9011 61.3777 63.7747 61.2884 63.6705 61.1761C61.6689 59.3181 59.0484 58.2699 56.3176 58.2349H43.5235C41.0783 58.2409 38.7042 59.0581 36.7735 60.5585L35.9646 61.1761C35.7877 61.3522 35.5521 61.4569 35.3029 61.4702Z" fill="#3D3D3D"/>
<path d="M49.8473 34.0878C48.8057 34.0762 47.7908 33.7567 46.9304 33.1696C46.07 32.5825 45.4025 31.754 45.0119 30.7883C44.6213 29.8227 44.5251 28.763 44.7354 27.7428C44.9457 26.7226 45.4531 25.7874 46.1938 25.055C46.9344 24.3225 47.8751 23.8255 48.8976 23.6265C49.9201 23.4275 50.9786 23.5355 51.9398 23.9367C52.9011 24.338 53.7222 25.0146 54.2997 25.8815C54.8773 26.7484 55.1855 27.7667 55.1855 28.8084C55.1856 29.5067 55.0471 30.198 54.7781 30.8424C54.5091 31.4868 54.115 32.0714 53.6185 32.5625C53.122 33.0535 52.533 33.4411 51.8857 33.7029C51.2384 33.9648 50.5455 34.0956 49.8473 34.0878V34.0878ZM49.8473 26.9113C49.4721 26.9113 49.1053 27.0226 48.7933 27.231C48.4814 27.4395 48.2382 27.7358 48.0946 28.0824C47.9511 28.429 47.9135 28.8105 47.9867 29.1785C48.0599 29.5465 48.2406 29.8845 48.5059 30.1498C48.7712 30.4151 49.1092 30.5958 49.4772 30.669C49.8452 30.7422 50.2266 30.7046 50.5733 30.561C50.9199 30.4175 51.2162 30.1743 51.4246 29.8623C51.6331 29.5504 51.7444 29.1836 51.7444 28.8084C51.7444 28.3053 51.5445 27.8227 51.1887 27.467C50.833 27.1112 50.3504 26.9113 49.8473 26.9113Z" fill="#3D3D3D"/>
</svg>
