<svg width="68" height="68" viewBox="0 0 68 68" fill="none" xmlns="http://www.w3.org/2000/svg">
<rect width="68" height="68" rx="10" fill="#FFDD00"/>
<path d="M39.38 41.6099C37.4 41.6099 35.79 39.9999 35.79 38.0199C35.79 36.0399 37.4 34.4299 39.38 34.4299C41.36 34.4299 42.97 36.0399 42.97 38.0199C42.97 39.9999 41.36 41.6099 39.38 41.6099ZM39.38 36.7299C38.67 36.7299 38.09 37.3099 38.09 38.0199C38.09 38.7299 38.67 39.3099 39.38 39.3099C40.09 39.3099 40.67 38.7299 40.67 38.0199C40.67 37.3099 40.1 36.7299 39.38 36.7299Z" fill="#3D3D3D"/>
<path d="M46.89 52.65H37.66C36.28 52.65 34.92 52.17 33.83 51.29C29.97 48.17 27.84 43.19 28.13 37.96C28.14 37.78 28.21 37.61 28.33 37.49C28.47 37.34 28.67 37.25 28.88 37.25H37.12C37.53 37.25 37.87 37.59 37.87 38C37.87 38.41 37.53 38.75 37.12 38.75H29.6C29.55 43.24 31.45 47.45 34.77 50.12C35.59 50.78 36.62 51.15 37.66 51.15H46.89C47.93 51.15 48.96 50.78 49.78 50.12C53.1 47.44 55 43.23 54.95 38.75H42.01C41.6 38.75 41.26 38.41 41.26 38C41.26 37.59 41.6 37.25 42.01 37.25H55.67C55.89 37.25 56.1 37.35 56.24 37.51C56.26 37.53 56.28 37.56 56.3 37.58C56.37 37.69 56.42 37.82 56.42 37.95C56.72 43.18 54.59 48.16 50.72 51.28C49.63 52.16 48.27 52.65 46.89 52.65Z" fill="#3D3D3D"/>
<path d="M48.39 38.7699C48.26 38.7699 48.13 38.7399 48.01 38.6599C47.65 38.4499 47.54 37.9899 47.75 37.6299L52.55 29.5599C53.16 28.5299 54.54 28.1799 55.62 28.7799C56.16 29.0799 56.54 29.5899 56.67 30.1699C56.79 30.7299 56.67 31.3199 56.32 31.7899L51.45 38.4499C51.21 38.7799 50.73 38.8599 50.4 38.6099C50.07 38.3699 49.99 37.8999 50.24 37.5599L55.11 30.8999C55.23 30.7399 55.23 30.5799 55.2 30.4799C55.16 30.3199 55.05 30.1799 54.89 30.0799C54.53 29.8799 54.04 29.9899 53.84 30.3199L49.04 38.3899C48.9 38.6399 48.65 38.7699 48.39 38.7699Z" fill="#3D3D3D"/>
<path d="M32.62 52.65H12.75C12.34 52.65 12 52.31 12 51.9V27.73C12 27.32 12.34 26.98 12.75 26.98H32.62C33.03 26.98 33.37 27.32 33.37 27.73V37.62C33.37 38.03 33.03 38.37 32.62 38.37C32.21 38.37 31.87 38.03 31.87 37.62V28.48H13.5V51.15H31.87V49.26C31.87 48.85 32.21 48.51 32.62 48.51C33.03 48.51 33.37 48.85 33.37 49.26V51.9C33.37 52.31 33.04 52.65 32.62 52.65Z" fill="#3D3D3D"/>
<path d="M27.93 20.34H17.51C17.1 20.34 16.76 20 16.76 19.59V16.75C16.76 16.34 17.1 16 17.51 16H27.93C28.34 16 28.68 16.34 28.68 16.75V19.59C28.68 20 28.34 20.34 27.93 20.34ZM18.26 18.84H27.18V17.5H18.26V18.84Z" fill="#3D3D3D"/>
<path d="M22.09 47.6899H15.6C15.19 47.6899 14.85 47.3499 14.85 46.9399V32.6799C14.85 32.2699 15.19 31.9299 15.6 31.9299H22.09C22.5 31.9299 22.84 32.2699 22.84 32.6799V46.9399C22.84 47.3599 22.51 47.6899 22.09 47.6899ZM16.36 46.1899H21.35V33.4299H16.36V46.1899Z" fill="#3D3D3D"/>
<path d="M32.62 28.4801H12.75C12.48 28.4801 12.23 28.3401 12.1 28.1001C11.97 27.8601 11.97 27.5801 12.1 27.3501L16.79 19.2101C16.92 18.9801 17.17 18.8301 17.44 18.8301H27.92C28.19 18.8301 28.44 18.9701 28.57 19.2101L33.26 27.3501C33.39 27.5801 33.39 27.8701 33.26 28.1001C33.13 28.3301 32.89 28.4801 32.62 28.4801ZM14.05 26.9801H31.32L27.49 20.3401H17.87L14.05 26.9801Z" fill="#3D3D3D"/>
<path d="M25.13 52.65C24.72 52.65 24.38 52.31 24.38 51.9V27.73C24.38 27.65 24.39 27.56 24.42 27.49L27.22 19.35C27.35 18.96 27.78 18.75 28.17 18.88C28.56 19.01 28.77 19.44 28.64 19.83L25.88 27.85V51.89C25.88 52.31 25.55 52.65 25.13 52.65Z" fill="#3D3D3D"/>
</svg>
