<svg width="100" height="100" viewBox="0 0 100 100" fill="none" xmlns="http://www.w3.org/2000/svg">
<rect width="100" height="100" rx="10" fill="#FFDD00"/>
<path d="M82.6177 70.7937H17.9118C17.4516 70.7937 17.0102 70.6108 16.6848 70.2854C16.3593 69.96 16.1765 69.5186 16.1765 69.0584V65.6025C16.1765 65.1423 16.3593 64.7009 16.6848 64.3754C17.0102 64.05 17.4516 63.8672 17.9118 63.8672H82.6177C83.0779 63.8672 83.5193 64.05 83.8447 64.3754C84.1702 64.7009 84.353 65.1423 84.353 65.6025V69.0584C84.353 69.5186 84.1702 69.96 83.8447 70.2854C83.5193 70.6108 83.0779 70.7937 82.6177 70.7937V70.7937ZM18.4265 68.5878H82.1471V66.0731H18.4265V68.5878Z" fill="#3D3D3D"/>
<path d="M81.7652 64.9704H79.5593V55.6028C79.5693 55.3335 79.5244 55.0649 79.4272 54.8135C79.3301 54.5621 79.1828 54.3331 78.9943 54.1405C78.8058 53.9479 78.58 53.7957 78.3308 53.6931C78.0816 53.5905 77.814 53.5398 77.5446 53.544H23.0151C22.7475 53.5417 22.4823 53.594 22.2355 53.6976C21.9888 53.8012 21.7657 53.954 21.5799 54.1466C21.3942 54.3393 21.2496 54.5677 21.155 54.8181C21.0605 55.0685 21.0179 55.3355 21.0299 55.6028V65.044H18.824V55.6028C18.8279 54.4924 19.2707 53.4286 20.0558 52.6435C20.841 51.8583 21.9048 51.4155 23.0151 51.4116H77.5446C78.6549 51.4155 79.7187 51.8583 80.5039 52.6435C81.2891 53.4286 81.7319 54.4924 81.7357 55.6028L81.7652 64.9704Z" fill="#3D3D3D"/>
<path d="M24.0588 76.3233H18.8088V69.6909H21.0147V74.1174H22.3235L23.4559 69.4409L25.603 69.9556L24.0588 76.3233Z" fill="#3D3D3D"/>
<path d="M80.0148 76.3233H77.8825C77.4909 76.3238 77.1108 76.1918 76.8038 75.9488C76.4967 75.7059 76.2809 75.3662 76.1913 74.9851L74.9707 69.9557L77.1178 69.4263L78.2501 74.1174H79.5589V69.7057H81.7648V74.588C81.7609 75.0496 81.5749 75.491 81.2471 75.816C80.9193 76.141 80.4764 76.3233 80.0148 76.3233V76.3233Z" fill="#3D3D3D"/>
<path d="M78.2798 52.441H76.0739V31.8528C76.0739 31.3263 75.8647 30.8213 75.4924 30.449C75.1201 30.0767 74.6152 29.8675 74.0886 29.8675H54.3386V27.6616H74.0886C75.199 27.6655 76.2628 28.1083 77.048 28.8935C77.8331 29.6786 78.2759 30.7424 78.2798 31.8528V52.441Z" fill="#3D3D3D"/>
<path d="M24.5003 52.441H22.2944V31.8528C22.2983 30.7424 22.7411 29.6786 23.5263 28.8935C24.3114 28.1083 25.3752 27.6655 26.4856 27.6616H46.2944V29.8675H26.4856C25.9591 29.8675 25.4541 30.0767 25.0818 30.449C24.7095 30.8213 24.5003 31.3263 24.5003 31.8528V52.441Z" fill="#3D3D3D"/>
<path d="M48.5739 52.4414H46.368V48.2502C46.4205 47.3873 46.1301 46.5385 45.5601 45.8885C44.99 45.2386 44.1863 44.84 43.3239 44.7796H34.0592C33.1967 44.84 32.3931 45.2386 31.823 45.8885C31.2529 46.5385 30.9625 47.3873 31.0151 48.2502V52.4561H28.8092V48.2502C28.7574 46.8025 29.2804 45.3931 30.264 44.3297C31.2475 43.2662 32.6119 42.6349 34.0592 42.5737H43.3239C44.7712 42.6349 46.1355 43.2662 47.1191 44.3297C48.1027 45.3931 48.6257 46.8025 48.5739 48.2502V52.4414Z" fill="#3D3D3D"/>
<path d="M71.7653 52.4414H69.5594V48.2502C69.6119 47.3873 69.3215 46.5385 68.7515 45.8885C68.1814 45.2386 67.3777 44.84 66.5153 44.7796H57.2506C56.3882 44.84 55.5845 45.2386 55.0144 45.8885C54.4443 46.5385 54.1539 47.3873 54.2065 48.2502V52.4561H52.0006V48.2502C51.9488 46.8025 52.4718 45.3931 53.4554 44.3297C54.4389 43.2662 55.8033 42.6349 57.2506 42.5737H66.5153C67.9626 42.6349 69.3269 43.2662 70.3105 44.3297C71.2941 45.3931 71.8171 46.8025 71.7653 48.2502V52.4414Z" fill="#3D3D3D"/>
<path d="M50.2948 34.0881C49.2506 34.0881 48.2299 33.7785 47.3617 33.1984C46.4935 32.6183 45.8168 31.7937 45.4173 30.8291C45.0177 29.8644 44.9131 28.8028 45.1168 27.7787C45.3205 26.7546 45.8233 25.8139 46.5617 25.0756C47.3 24.3373 48.2407 23.8345 49.2648 23.6307C50.2889 23.427 51.3504 23.5316 52.3151 23.9312C53.2798 24.3307 54.1044 25.0074 54.6845 25.8756C55.2646 26.7438 55.5742 27.7645 55.5742 28.8087C55.5742 30.2089 55.018 31.5517 54.0279 32.5418C53.0378 33.5319 51.695 34.0881 50.2948 34.0881ZM50.2948 26.9117C49.9196 26.9117 49.5528 27.0229 49.2408 27.2313C48.9289 27.4398 48.6857 27.7361 48.5421 28.0827C48.3986 28.4294 48.361 28.8108 48.4342 29.1788C48.5074 29.5468 48.6881 29.8848 48.9534 30.1501C49.2187 30.4154 49.5567 30.5961 49.9247 30.6693C50.2927 30.7425 50.6741 30.7049 51.0208 30.5614C51.3674 30.4178 51.6637 30.1746 51.8721 29.8627C52.0806 29.5507 52.1919 29.1839 52.1919 28.8087C52.1919 28.3056 51.992 27.823 51.6362 27.4673C51.2804 27.1115 50.7979 26.9117 50.2948 26.9117Z" fill="#3D3D3D"/>
</svg>
