<svg width="100" height="100" viewBox="0 0 100 100" fill="none" xmlns="http://www.w3.org/2000/svg">
<rect width="100" height="100" rx="10" fill="#FFDD00"/>
<circle cx="72.2088" cy="25.5485" r="3.81015" stroke="#3D3D3D" stroke-width="2.3"/>
<path fill-rule="evenodd" clip-rule="evenodd" d="M77.0486 26.639C77.1274 26.2881 77.1689 25.9231 77.1689 25.5484C77.1689 25.2665 77.1454 24.9902 77.1003 24.7212H77.5408C80.6102 24.7212 83.1074 27.2183 83.1074 30.2878C83.1074 33.1464 80.9409 35.5077 78.1631 35.8184V64.8797C78.1631 67.2929 76.7143 69.4115 74.5458 70.3099C74.8849 71.1665 74.792 79.4114 66.6309 79.4114C63.549 79.4114 60.7298 77.6065 59.4148 74.8577H43.2335C41.9185 77.6065 39.0993 79.4114 36.0173 79.4114C32.1783 79.4114 28.964 76.6906 28.1984 73.0762C26.7161 72.7261 25.6049 71.4077 25.5714 69.828C20.8044 67.8932 17.6471 63.2471 17.6471 58.0546C17.6471 52.8786 20.8099 48.214 25.5714 46.2792C26.0329 42.6639 29.2462 42.9486 29.375 42.9636L28.8252 41.2011C28.5545 40.3321 28.7083 39.4137 29.2472 38.681C29.7866 37.9479 30.6171 37.5274 31.527 37.5274H39.2366C40.1466 37.5274 40.9776 37.9479 41.517 38.681C42.0559 39.4137 42.2097 40.3326 41.939 41.2011L41.4695 42.7059C41.3117 43.2113 40.7738 43.493 40.2684 43.3357C39.763 43.1778 39.4808 42.6405 39.6387 42.1345L40.1081 40.6298L40.1109 40.6209C40.2014 40.331 40.4782 39.4452 39.2366 39.4452H31.527C30.3749 39.4452 30.5686 40.3496 30.656 40.6298C30.656 40.6298 32.1573 45.0642 32.2452 45.3473H47.1465V35.8184C44.3692 35.5077 42.2027 33.1464 42.2027 30.2878C42.2027 27.2183 44.6998 24.7212 47.7692 24.7212H67.3173C67.2721 24.9902 67.2486 25.2665 67.2486 25.5484C67.2486 25.9231 67.2902 26.2881 67.3689 26.639H47.7692C45.7571 26.639 44.1205 28.2756 44.1205 30.2878C44.1205 32.2994 45.7571 33.936 47.7692 33.936H69.61C70.1394 33.936 70.5689 34.3655 70.5689 34.8949C70.5689 35.4248 70.1394 35.8538 69.61 35.8538H49.0642V67.9786H59.4153C60.7298 65.2298 63.549 63.4249 66.6309 63.4249C69.9835 63.4249 72.8587 65.5 74.0438 68.4331C75.3733 67.7774 76.2458 66.4174 76.2458 64.8797V35.8538H73.445C72.9152 35.8538 72.4861 35.4248 72.4861 34.8949C72.4861 34.3655 72.9152 33.936 73.445 33.936H77.5408C79.553 33.936 81.1896 32.2994 81.1896 30.2878C81.1896 28.2756 79.553 26.639 77.5408 26.639H77.0486ZM47.1465 67.9786H43.234C41.9105 65.2009 39.1168 63.4249 36.0173 63.4249C34.7143 63.4249 33.4843 63.7405 32.3965 64.2954V47.2651H47.1465V67.9786ZM19.5649 58.0546C19.5649 53.9274 21.9331 50.1827 25.5694 48.3813V67.7269C21.9291 65.927 19.5649 62.1953 19.5649 58.0546ZM27.4872 69.7551V46.3537C27.4872 45.5291 28.1584 44.8584 28.983 44.8584C30.289 44.8584 30.4787 46.053 30.4787 46.3537V65.6628C29.0804 67.0093 28.1699 68.8576 28.0416 70.9157C27.704 70.6411 27.4872 70.223 27.4872 69.7551ZM36.0173 77.4936C32.6672 77.4936 29.9419 74.7683 29.9419 71.4182C29.9419 68.068 32.6672 65.3427 36.0173 65.3427C38.0495 65.3427 39.9083 66.3475 41.027 67.9786H36.2201C34.3238 67.9786 32.7806 69.5214 32.7806 71.4182C32.7806 73.3145 34.3233 74.8577 36.2201 74.8577C36.7495 74.8577 37.179 74.4282 37.179 73.8988C37.179 73.3689 36.7495 72.9399 36.2201 72.9399C35.3811 72.9399 34.6984 72.2572 34.6984 71.4182C34.6984 70.5791 35.3811 69.8964 36.2201 69.8964H66.4287C67.2677 69.8964 67.9499 70.5791 67.9499 71.4182C67.9499 72.2572 67.2677 72.9399 66.4287 72.9399H40.615C40.0851 72.9399 39.6561 73.3689 39.6561 73.8988C39.6561 74.9346 41.0236 74.8577 41.0236 74.8577C39.9053 76.4753 38.0355 77.4936 36.0173 77.4936ZM66.6309 77.4936C64.6128 77.4936 62.7434 76.4753 61.6247 74.8577H66.4287C68.325 74.8577 69.8677 73.3145 69.8677 71.4182C69.8677 69.5219 68.325 67.9786 66.4287 67.9786H61.6247C62.7434 66.361 64.6128 65.3427 66.6309 65.3427C69.981 65.3427 72.7064 68.068 72.7064 71.4182C72.7064 74.7683 69.981 77.4936 66.6309 77.4936ZM68.5731 38.5634H56.7368C54.9739 38.5634 53.539 39.9983 53.539 41.7612V52.2181C53.539 53.9811 54.9739 55.4154 56.7368 55.4154H68.5731C70.3361 55.4154 71.7709 53.9811 71.7709 52.2181V41.7612C71.7709 39.9978 70.3361 38.5634 68.5731 38.5634ZM69.8532 52.2181C69.8532 52.9238 69.2788 53.4977 68.5731 53.4977H56.7368C56.0312 53.4977 55.4568 52.9238 55.4568 52.2181V41.7612C55.4568 41.0556 56.0312 40.4812 56.7368 40.4812H68.5731C69.2788 40.4812 69.8532 41.0556 69.8532 41.7612V52.2181Z" fill="#3D3D3D"/>
</svg>
