<svg width="100" height="100" viewBox="0 0 100 100" fill="none" xmlns="http://www.w3.org/2000/svg">
<rect width="100" height="100" rx="10" fill="#FFDD00"/>
<path d="M72.2942 34.1765C69.3824 34.1765 67.0148 31.8088 67.0148 28.8971C67.0148 25.9853 69.3824 23.6177 72.2942 23.6177C75.206 23.6177 77.5736 25.9853 77.5736 28.8971C77.5736 31.8088 75.206 34.1765 72.2942 34.1765ZM72.2942 27C71.2501 27 70.3971 27.853 70.3971 28.8971C70.3971 29.9412 71.2501 30.7942 72.2942 30.7942C73.3383 30.7942 74.1912 29.9412 74.1912 28.8971C74.1912 27.853 73.3383 27 72.2942 27Z" fill="#3D3D3D"/>
<path d="M49.4118 81.1764C31.8971 81.1764 17.6471 66.9264 17.6471 49.4117C17.6471 31.897 31.8971 17.647 49.4118 17.647C57.1618 17.647 64.6177 20.4705 70.4265 25.5881C70.8824 25.9852 70.9265 26.6911 70.5294 27.147C70.1177 27.6028 69.4265 27.647 68.9706 27.2499C63.5736 22.4852 56.6177 19.8529 49.4118 19.8529C33.1177 19.8529 19.853 33.1175 19.853 49.4117C19.853 65.7058 33.1177 78.9705 49.4118 78.9705C65.7059 78.9705 78.9706 65.7058 78.9706 49.4117C78.9706 43.2646 77.103 37.3823 73.5736 32.3823C73.2206 31.8823 73.3383 31.1911 73.8383 30.8528C74.3383 30.4999 75.0294 30.6175 75.3677 31.1175C79.1618 36.4852 81.1618 42.8234 81.1618 49.4264C81.1765 66.9411 66.9265 81.1764 49.4118 81.1764Z" fill="#3D3D3D"/>
<path d="M44.2353 44.1324C43.1324 44.1324 42.0294 43.6618 41.1324 42.8089C40.1324 41.853 39.4412 40.5001 39.2059 38.9854C38.9559 37.4707 39.1765 35.9706 39.8236 34.7501C40.5294 33.4265 41.6324 32.5736 42.9412 32.3677C44.2353 32.1618 45.5883 32.6177 46.6471 33.6471C47.6471 34.603 48.3236 35.956 48.5736 37.4707C48.8236 38.9854 48.603 40.4854 47.9559 41.706C47.25 43.0295 46.1471 43.8824 44.8383 44.0883C44.6471 44.1177 44.4412 44.1324 44.2353 44.1324ZM43.5736 34.5295C43.4853 34.5295 43.3971 34.5295 43.3089 34.5442C42.6912 34.6471 42.1471 35.0883 41.7795 35.7795C41.3677 36.5736 41.2206 37.603 41.3824 38.6324C41.5442 39.6765 42 40.5883 42.6618 41.2059C43.2353 41.7501 43.8824 42.0001 44.5 41.8971C45.1177 41.7942 45.6618 41.353 46.0294 40.6618C46.4412 39.8677 46.5883 38.8383 46.4265 37.8089C46.2647 36.7795 45.7941 35.853 45.1471 35.2354C44.6618 34.7795 44.1177 34.5295 43.5736 34.5295Z" fill="#3D3D3D"/>
<path d="M35.0882 51.1029C34.4117 51.1029 33.7206 50.9411 33.0441 50.6176C31.7941 50.0293 30.7059 48.9705 29.9853 47.6175C28.4559 44.7205 29.0882 41.3675 31.4117 40.147C32.5882 39.5293 33.9853 39.5293 35.3382 40.1617C36.5882 40.7499 37.6764 41.8087 38.397 43.1617C39.1176 44.5146 39.3823 45.9999 39.1617 47.3675C38.9265 48.8234 38.1323 50.0146 36.9706 50.6323C36.3823 50.9558 35.75 51.1029 35.0882 51.1029ZM33.2941 41.9117C32.9853 41.9117 32.7059 41.9852 32.4412 42.1176C31.2206 42.7646 30.9853 44.8234 31.9412 46.6029C32.4264 47.5146 33.1618 48.2646 33.9706 48.6323C34.6912 48.9705 35.3823 48.9852 35.9264 48.6911C36.4706 48.397 36.8529 47.8087 36.9706 47.0293C37.1176 46.147 36.9117 45.1176 36.4265 44.2058C35.9412 43.2793 35.2059 42.5587 34.397 42.1764C34.0294 41.9999 33.647 41.9117 33.2941 41.9117Z" fill="#3D3D3D"/>
<path d="M54.5735 44.1324C54.3676 44.1324 54.1618 44.1177 53.9559 44.0883C52.6618 43.8824 51.5294 43.0147 50.8382 41.7059C50.1912 40.4853 49.9706 38.9853 50.2206 37.4706C50.4706 35.9559 51.147 34.603 52.147 33.6471C53.2353 32.603 54.5441 32.1618 55.8676 32.3677C57.1618 32.5736 58.2941 33.4412 58.9853 34.75C59.6323 35.9706 59.8529 37.4706 59.6029 38.9853C59.1323 41.9706 56.9412 44.1324 54.5735 44.1324ZM55.2353 34.5294C54.7059 34.5294 54.1618 34.7794 53.6618 35.25C53.0147 35.8677 52.5588 36.8089 52.3823 37.8236C52.2206 38.853 52.3676 39.8824 52.7794 40.6765C53.147 41.3677 53.6912 41.8089 54.3088 41.9118C55.647 42.1324 57.1029 40.6324 57.4265 38.6324C57.5882 37.603 57.4412 36.5736 57.0294 35.7794C56.6618 35.0883 56.1176 34.6471 55.5 34.5441C55.4265 34.5441 55.3235 34.5294 55.2353 34.5294Z" fill="#3D3D3D"/>
<path d="M63.7352 51.1031C63.0735 51.1031 62.4411 50.956 61.8529 50.6472C60.6764 50.0296 59.897 48.8678 59.6617 47.3972C59.4411 46.0296 59.7205 44.5296 60.4264 43.1913C61.9558 40.309 65.0882 38.9413 67.4117 40.1766C68.5882 40.7943 69.3676 41.956 69.6029 43.4413C69.8235 44.809 69.544 46.309 68.8382 47.6472C68.1176 49.0001 67.044 50.059 65.7793 50.6472C65.0882 50.956 64.397 51.1031 63.7352 51.1031ZM62.3823 44.206C61.897 45.1178 61.7058 46.1472 61.8382 47.0296C61.9705 47.809 62.3382 48.3972 62.8823 48.6913C63.4264 48.9855 64.1323 48.956 64.8382 48.6325C65.647 48.2501 66.3823 47.5149 66.8676 46.6031C67.3529 45.6913 67.544 44.6619 67.4117 43.7796C67.294 43.0001 66.9117 42.4119 66.3676 42.1178C65.147 41.456 63.3235 42.4266 62.3823 44.206Z" fill="#3D3D3D"/>
<path d="M41.6765 66.5148C39.3383 66.5148 37.1765 65.3236 35.8971 63.3089C34.5295 61.1325 34.5148 58.5295 35.853 56.3678C38.2059 52.5737 43.103 46.2207 49.3971 46.2207C55.6912 46.2207 60.5883 52.5737 62.9412 56.3678C64.2942 58.5295 64.2795 61.1325 62.8971 63.3089C61.4853 65.5442 58.9853 66.7648 56.3677 66.4707C55.2206 66.3531 54.103 65.9266 53.0148 65.5295C51.7501 65.0589 50.5589 64.6178 49.3971 64.6178C48.2353 64.6178 47.0442 65.0589 45.7795 65.5295C44.6912 65.9266 43.5736 66.3384 42.4265 66.4707C42.1912 66.5001 41.9265 66.5148 41.6765 66.5148ZM49.4118 48.4266C44.0001 48.4266 39.4412 54.7942 37.7353 57.5295C36.8383 58.956 36.853 60.6766 37.7647 62.1325C38.7206 63.6472 40.4118 64.4854 42.1912 64.2795C43.0589 64.1766 44.0148 63.8383 45.0148 63.4707C46.3971 62.956 47.8383 62.4266 49.3971 62.4266C50.9559 62.4266 52.3971 62.956 53.7794 63.4707C54.7794 63.8383 55.7354 64.1913 56.603 64.2795C58.3677 64.4707 60.0736 63.6472 61.0295 62.1325C61.9412 60.6766 61.9559 58.956 61.0589 57.5295C59.3824 54.7942 54.8236 48.4266 49.4118 48.4266Z" fill="#3D3D3D"/>
</svg>
