<svg width="100" height="100" viewBox="0 0 100 100" fill="none" xmlns="http://www.w3.org/2000/svg">
<rect width="100" height="100" rx="10" fill="#FFDD00"/>
<circle cx="69.0734" cy="26.7956" r="3.58702" stroke="#3D3D3D" stroke-width="2.3"/>
<path fill-rule="evenodd" clip-rule="evenodd" d="M73.717 25.8566C76.3811 25.4589 79.0317 24.9942 81.6646 24.463V68.5906C72.9816 66.8388 64.1044 65.8135 55.1936 65.5253C55.1437 65.5203 55.0931 65.5186 55.0417 65.5206C53.3618 65.4679 51.6811 65.4384 50 65.4384C48.3203 65.4384 46.6409 65.4679 44.9625 65.5204C44.9078 65.5178 44.8537 65.5199 44.8004 65.5255C35.8916 65.8138 27.0164 66.8392 18.3354 68.5906V24.4628C28.7048 26.555 39.3507 27.6153 50 27.6153C54.7887 27.6153 59.5768 27.4009 64.3394 26.9747C64.3372 26.9153 64.3361 26.8555 64.3361 26.7955C64.3361 26.069 64.4996 25.3806 64.792 24.7653C59.8809 25.225 54.9409 25.4563 50 25.4563C39.0536 25.4563 28.1117 24.3209 17.4783 22.0819C17.1598 22.0146 16.8285 22.0949 16.5758 22.2999C16.3233 22.5049 16.1765 22.8129 16.1765 23.1382V69.9154C16.1765 70.2407 16.3233 70.5486 16.5758 70.7536C16.8285 70.9585 17.1603 71.0388 17.4783 70.9716C26.0489 69.1668 34.8202 68.0805 43.633 67.7264L42.2489 76.0323H26.9712C26.3749 76.0323 25.8918 76.5156 25.8918 77.1117C25.8918 77.7079 26.3749 78.1912 26.9712 78.1912H43.1629H56.8322H73.0287C73.625 78.1912 74.1082 77.7079 74.1082 77.1117C74.1082 76.5156 73.625 76.0323 73.0287 76.0323H57.7512L56.367 67.7264C65.1797 68.0805 73.951 69.1668 82.5216 70.9716C82.5956 70.9872 82.67 70.9947 82.7441 70.9947C82.9895 70.9947 83.2302 70.9109 83.4243 70.7534C83.6768 70.5485 83.8236 70.2407 83.8236 69.9152V23.1382C83.8234 22.8129 83.6767 22.5049 83.4242 22.3C83.1714 22.0951 82.8397 22.0149 82.5216 22.082C79.292 22.762 76.0338 23.3403 72.7557 23.8158C73.2273 24.3979 73.5637 25.0941 73.717 25.8566ZM72.0889 30.4487C72.8298 29.8363 73.3812 29.003 73.6423 28.0496C75.1796 27.8241 76.712 27.5767 78.2385 27.3074C78.5527 27.2523 78.8755 27.3384 79.1198 27.5436C79.3645 27.7489 79.5054 28.0516 79.5053 28.3707V64.683C79.5053 65.002 79.3642 65.3049 79.1196 65.5099C78.9238 65.6743 78.6776 65.7624 78.4259 65.7624C78.3635 65.7624 78.3009 65.757 78.2384 65.746C68.9596 64.1093 59.4587 63.2794 49.9997 63.2794C40.5408 63.2794 31.04 64.1092 21.7612 65.746C21.4471 65.801 21.1243 65.7148 20.88 65.5098C20.6354 65.3046 20.4943 65.0019 20.4943 64.6828V48.6857C20.4943 48.0895 20.9775 47.6062 21.5738 47.6062C22.17 47.6062 22.6532 48.0895 22.6532 48.6857V63.4015C31.6524 61.8875 40.8453 61.1204 49.9999 61.1204C59.1544 61.1204 68.3474 61.8875 77.3465 63.4015V29.652C75.6007 29.9457 73.8476 30.2113 72.0889 30.4487ZM66.9982 31.0552C61.3539 31.6389 55.6694 31.9331 49.9999 31.9331C40.8459 31.9331 31.6529 31.166 22.6532 29.652V44.3679C22.6532 44.964 22.17 45.4473 21.5738 45.4473C20.9775 45.4473 20.4943 44.964 20.4943 44.3679V28.3707C20.4943 28.0516 20.6353 27.7489 20.88 27.5439C21.1241 27.3386 21.4469 27.2524 21.7612 27.3076C31.0405 28.9444 40.5413 29.7742 49.9999 29.7742C54.9767 29.7742 59.9651 29.5445 64.9269 29.0883C65.3978 29.938 66.1223 30.6277 66.9982 31.0552ZM44.4376 76.0323L45.8341 67.6524C47.2222 67.6159 48.611 67.5973 49.9998 67.5973C51.3887 67.5973 52.7776 67.616 54.1656 67.6524L55.5621 76.0323H44.4376Z" fill="#3D3D3D"/>
</svg>
