<svg width="100" height="100" viewBox="0 0 100 100" fill="none" xmlns="http://www.w3.org/2000/svg">
<rect width="100" height="100" rx="10" fill="#FFDD00"/>
<path d="M49.6324 76.3535C36.2647 76.3535 22.0588 72.9123 22.0588 66.5447V46.7065C22.0588 46.1035 22.5588 45.6035 23.1618 45.6035C23.7647 45.6035 24.2647 46.1035 24.2647 46.7065V66.5447C24.2647 70.1329 34.6912 74.1476 49.6324 74.1476C64.5883 74.1476 75 70.1476 75 66.5447V46.7065C75 46.1035 75.5 45.6035 76.103 45.6035C76.7059 45.6035 77.2059 46.1035 77.2059 46.7065V66.5447C77.2059 72.927 63 76.3535 49.6324 76.3535Z" fill="#3D3D3D"/>
<path d="M49.6324 69.5737C49.0294 69.5737 48.5294 69.0737 48.5294 68.4707V61.059C48.5294 60.456 49.0294 59.956 49.6324 59.956C71.1324 59.956 75.1324 54.0737 75.1618 54.0149C75.4853 53.5149 76.1618 53.3384 76.6765 53.6472C77.1912 53.956 77.3677 54.6178 77.0588 55.1325C76.8971 55.4119 72.8824 61.9413 50.7353 62.1472V67.3531C71.2794 67.1619 75.1324 61.4854 75.1618 61.4266C75.4853 60.9266 76.1618 60.7502 76.6765 61.059C77.1912 61.3678 77.3677 62.0296 77.0588 62.5443C76.8971 62.8384 72.75 69.5737 49.6324 69.5737Z" fill="#3D3D3D"/>
<path d="M49.6324 56.5148C36.2647 56.5148 22.0588 53.0736 22.0588 46.706C22.0588 44.9118 23.2059 43.2648 25.4559 41.8236C25.9706 41.5001 26.6471 41.6471 26.9853 42.1618C27.3088 42.6765 27.1618 43.353 26.6471 43.6913C25.5588 44.3971 24.2647 45.4854 24.2647 46.7207C24.2647 50.3089 34.6912 54.3236 49.6324 54.3236C64.5883 54.3236 75 50.3236 75 46.7207C75 45.4854 73.7206 44.3971 72.6324 43.7059C72.1177 43.3824 71.9706 42.6912 72.3088 42.1765C72.6324 41.6618 73.3236 41.5148 73.8383 41.853C76.0736 43.2942 77.2059 44.9412 77.2059 46.7207C77.2059 53.0883 63 56.5148 49.6324 56.5148Z" fill="#3D3D3D"/>
<path d="M49.6324 51.765C37.7059 51.765 25.0294 48.6768 25.0294 42.9415V38.8974C25.0294 38.2944 25.5294 37.7944 26.1324 37.7944C26.7353 37.7944 27.2353 38.2944 27.2353 38.8974V42.9415C27.2353 46.0738 36.8088 49.5591 49.6324 49.5591C62.4559 49.5591 72.0294 46.0591 72.0294 42.9415V38.8974C72.0294 38.2944 72.5294 37.7944 73.1324 37.7944C73.7353 37.7944 74.2353 38.2944 74.2353 38.8974V42.9415C74.2353 48.6621 61.5588 51.765 49.6324 51.765Z" fill="#3D3D3D"/>
<path d="M49.6324 46.8385C37.7059 46.8385 25.0294 43.7502 25.0294 38.0149C25.0294 32.7355 35.5 29.8237 45.8677 29.2796C46.4559 29.2502 47 29.7208 47.0294 30.3237C47.0588 30.9267 46.5882 31.4561 45.9853 31.4855C34.4118 32.0885 27.2353 35.3385 27.2353 38.0149C27.2353 41.1473 36.8088 44.6326 49.6324 44.6326C62.4559 44.6326 72.0294 41.1326 72.0294 38.0149C72.0294 35.3532 64.8677 32.0885 53.2941 31.4855C52.6912 31.4561 52.2206 30.9414 52.25 30.3237C52.2794 29.7208 52.7941 29.2649 53.4118 29.2796C63.7794 29.8237 74.2353 32.7355 74.2353 38.0149C74.2353 43.7502 61.5588 46.8385 49.6324 46.8385Z" fill="#3D3D3D"/>
<path d="M49.6324 35.5588C46.7207 35.5588 44.353 33.1912 44.353 30.2794C44.353 27.3677 46.7207 25 49.6324 25C52.5442 25 54.9118 27.3677 54.9118 30.2794C54.9118 33.1912 52.5442 35.5588 49.6324 35.5588ZM49.6324 28.3824C48.5883 28.3824 47.7354 29.2353 47.7354 30.2794C47.7354 31.3235 48.5883 32.1765 49.6324 32.1765C50.6766 32.1765 51.5295 31.3235 51.5295 30.2794C51.5295 29.2353 50.6766 28.3824 49.6324 28.3824Z" fill="#3D3D3D"/>
</svg>
