<svg width="100" height="100" viewBox="0 0 100 100" fill="none" xmlns="http://www.w3.org/2000/svg">
<rect width="100" height="100" rx="10" fill="#FFDD00"/>
<path fill-rule="evenodd" clip-rule="evenodd" d="M63.9205 19.1177H32.3633C28.2986 19.1223 25.0046 22.4163 25 26.481V74.8687C25.0046 78.9334 28.2986 82.2275 32.3633 82.2321H63.9205C67.9852 82.2275 71.2793 78.9334 71.2839 74.8687V39.8781C71.0252 39.9215 70.7595 39.944 70.4885 39.944C70.0348 39.944 69.5959 39.8807 69.1801 39.7625V69.6092H27.1038V27.5329H69.1801V30.5807C69.5959 30.4624 70.0348 30.3991 70.4885 30.3991C70.7595 30.3991 71.0252 30.4217 71.2839 30.4651V26.481C71.2793 22.4163 67.9852 19.1223 63.9205 19.1177ZM32.3633 21.2215H63.9205C66.419 21.2246 68.5717 22.982 69.0749 25.4291H27.209C27.7122 22.982 29.8649 21.2246 32.3633 21.2215ZM69.1801 74.8687C69.1767 77.772 66.8238 80.1249 63.9205 80.1283H32.3633C29.4601 80.1249 27.1072 77.772 27.1038 74.8687V71.713H69.1801V74.8687ZM50.2458 72.765H46.0381C45.4572 72.765 44.9862 73.236 44.9862 73.8169V78.0246C44.9862 78.6055 45.4572 79.0765 46.0381 79.0765H50.2458C50.8267 79.0765 51.2977 78.6055 51.2977 78.0246V73.8169C51.2977 73.236 50.8267 72.765 50.2458 72.765ZM49.1939 76.9727H47.09V74.8689H49.1939V76.9727Z" fill="#3D3D3D"/>
<circle cx="70.4885" cy="35.1714" r="3.62247" stroke="#3D3D3D" stroke-width="2.3"/>
</svg>
