<svg width="100" height="100" viewBox="0 0 100 100" fill="none" xmlns="http://www.w3.org/2000/svg">
<rect width="100" height="100" rx="10" fill="#FFDD00"/>
<path d="M64.2946 75.7353H31.2504C29.9932 75.7314 28.7888 75.2292 27.9012 74.3389C27.0136 73.4485 26.5151 72.2425 26.5151 70.9853V29.7353C26.5151 28.4794 27.014 27.275 27.9021 26.3869C28.7901 25.4989 29.9946 25 31.2504 25H64.2946C65.5402 25.0155 66.7296 25.5212 67.6049 26.4076C68.4803 27.2939 68.9711 28.4895 68.971 29.7353V32.0294C68.971 32.3219 68.8548 32.6025 68.648 32.8093C68.4411 33.0162 68.1606 33.1324 67.8681 33.1324C67.5756 33.1324 67.295 33.0162 67.0882 32.8093C66.8813 32.6025 66.7651 32.3219 66.7651 32.0294V29.7353C66.7651 29.0645 66.4987 28.4211 66.0243 27.9467C65.5499 27.4724 64.9066 27.2059 64.2357 27.2059H31.2504C30.5796 27.2059 29.9362 27.4724 29.4619 27.9467C28.9875 28.4211 28.721 29.0645 28.721 29.7353V70.9853C28.721 71.6575 28.987 72.3024 29.461 72.7791C29.9349 73.2558 30.5782 73.5255 31.2504 73.5294H64.2946C64.9667 73.5255 65.6101 73.2558 66.084 72.7791C66.5579 72.3024 66.824 71.6575 66.8239 70.9853V40.0294C66.8239 39.7369 66.9402 39.4564 67.147 39.2495C67.3538 39.0427 67.6344 38.9265 67.9269 38.9265C68.2194 38.9265 68.4999 39.0427 68.7068 39.2495C68.9136 39.4564 69.0298 39.7369 69.0298 40.0294V70.9853C69.0298 72.2425 68.5314 73.4485 67.6438 74.3389C66.7562 75.2292 65.5518 75.7314 64.2946 75.7353V75.7353Z" fill="#3D3D3D"/>
<path d="M64.3382 37.2059H27.5735C27.281 37.2059 27.0005 37.0897 26.7936 36.8828C26.5868 36.676 26.4706 36.3955 26.4706 36.1029C26.4706 35.8104 26.5868 35.5299 26.7936 35.323C27.0005 35.1162 27.281 35 27.5735 35H64.3382C64.6307 35 64.9113 35.1162 65.1181 35.323C65.325 35.5299 65.4412 35.8104 65.4412 36.1029C65.4412 36.3955 65.325 36.676 65.1181 36.8828C64.9113 37.0897 64.6307 37.2059 64.3382 37.2059V37.2059Z" fill="#3D3D3D"/>
<path d="M41.0293 37.2059C40.8839 37.2079 40.7396 37.1807 40.6049 37.126C40.4702 37.0712 40.3478 36.9901 40.245 36.8872C40.1422 36.7844 40.061 36.6621 40.0063 36.5274C39.9516 36.3926 39.9244 36.2483 39.9264 36.1029V26.1029C39.9264 25.8104 40.0426 25.5299 40.2494 25.323C40.4562 25.1162 40.7368 25 41.0293 25C41.3218 25 41.6024 25.1162 41.8092 25.323C42.0161 25.5299 42.1323 25.8104 42.1323 26.1029V36.1029C42.1323 36.3955 42.0161 36.676 41.8092 36.8828C41.6024 37.0897 41.3218 37.2059 41.0293 37.2059Z" fill="#3D3D3D"/>
<path d="M52.0148 32.2059H46.1325C45.84 32.2059 45.5594 32.0897 45.3526 31.8828C45.1457 31.676 45.0295 31.3955 45.0295 31.1029C45.0295 30.8104 45.1457 30.5299 45.3526 30.323C45.5594 30.1162 45.84 30 46.1325 30H52.0148C52.3074 30 52.5879 30.1162 52.7947 30.323C53.0016 30.5299 53.1178 30.8104 53.1178 31.1029C53.1178 31.3955 53.0016 31.676 52.7947 31.8828C52.5879 32.0897 52.3074 32.2059 52.0148 32.2059Z" fill="#3D3D3D"/>
<path d="M54.0593 59.2938C53.843 59.2937 53.6316 59.23 53.4512 59.1106C53.2709 58.9912 53.1296 58.8215 53.045 58.6224C52.9603 58.4234 52.9361 58.2039 52.9753 57.9912C53.0144 57.7785 53.1152 57.582 53.2652 57.4262C53.8015 56.8339 54.0985 56.0634 54.0985 55.2644C54.0985 54.4654 53.8015 53.6949 53.2652 53.1026C53.0702 52.8823 52.9707 52.5935 52.9886 52.2997C53.0065 52.006 53.1404 51.7315 53.3608 51.5365C53.5811 51.3414 53.87 51.2419 54.1637 51.2599C54.4574 51.2778 54.7319 51.4117 54.9269 51.632C55.8374 52.6401 56.3414 53.9502 56.3414 55.3085C56.3414 56.6669 55.8374 57.9769 54.9269 58.985C54.8115 59.0936 54.6748 59.1771 54.5255 59.2303C54.3761 59.2834 54.2174 59.3051 54.0593 59.2938V59.2938Z" fill="#3D3D3D"/>
<path d="M60.824 32.2059H54.9417C54.6492 32.2059 54.3686 32.0897 54.1618 31.8828C53.9549 31.676 53.8387 31.3955 53.8387 31.1029C53.8387 30.8104 53.9549 30.5299 54.1618 30.323C54.3686 30.1162 54.6492 30 54.9417 30H60.824C61.1166 30 61.3971 30.1162 61.6039 30.323C61.8108 30.5299 61.927 30.8104 61.927 31.1029C61.927 31.3955 61.8108 31.676 61.6039 31.8828C61.3971 32.0897 61.1166 32.2059 60.824 32.2059Z" fill="#3D3D3D"/>
<path d="M47.7647 69.4412C44.9619 69.4412 42.2221 68.6095 39.8923 67.0514C37.5625 65.4934 35.7474 63.279 34.6768 60.6887C33.6062 58.0984 33.3284 55.2487 33.8784 52.5004C34.4284 49.752 35.7816 47.2288 37.7665 45.25C39.7515 43.2712 42.279 41.9259 45.029 41.3844C47.7791 40.843 50.6279 41.1298 53.2148 42.2084C55.8018 43.287 58.0105 45.109 59.5613 47.4437C61.1121 49.7784 61.9352 52.5208 61.9265 55.3236C61.9109 59.0707 60.4125 62.6592 57.7588 65.3047C55.105 67.9501 51.5118 69.4374 47.7647 69.4412V69.4412ZM47.7647 43.3383C45.4013 43.3383 43.0909 44.0387 41.1254 45.3512C39.16 46.6636 37.6275 48.5291 36.7218 50.7121C35.816 52.895 35.5775 55.2974 36.0365 57.6158C36.4954 59.9342 37.6312 62.0646 39.3003 63.7378C40.9694 65.4111 43.097 66.5521 45.4143 67.0167C47.7315 67.4813 50.1345 67.2488 52.3197 66.3484C54.5049 65.448 56.3741 63.9201 57.6914 61.9579C59.0087 59.9956 59.7148 57.687 59.7206 55.3236C59.7245 53.751 59.4181 52.1932 58.819 50.7392C58.2199 49.2853 57.3398 47.9638 56.2292 46.8505C55.1186 45.7371 53.7993 44.8538 52.3468 44.2512C50.8944 43.6485 49.3373 43.3383 47.7647 43.3383V43.3383Z" fill="#3D3D3D"/>
<path d="M67.9266 41.3821C66.8825 41.3821 65.8617 41.0724 64.9935 40.4923C64.1254 39.9122 63.4487 39.0877 63.0491 38.123C62.6495 37.1583 62.545 36.0968 62.7487 35.0727C62.9524 34.0486 63.4552 33.1079 64.1935 32.3695C64.9319 31.6312 65.8726 31.1284 66.8967 30.9247C67.9208 30.721 68.9823 30.8255 69.947 31.2251C70.9117 31.6247 71.7362 32.3014 72.3163 33.1696C72.8964 34.0378 73.2061 35.0585 73.2061 36.1027C73.2061 37.5028 72.6498 38.8457 71.6597 39.8358C70.6696 40.8258 69.3268 41.3821 67.9266 41.3821ZM67.9266 34.2203C67.5508 34.2203 67.1834 34.332 66.8712 34.5411C66.5589 34.7502 66.3158 35.0473 66.1726 35.3948C66.0295 35.7423 65.9928 36.1245 66.0672 36.4929C66.1416 36.8613 66.3237 37.1993 66.5905 37.464C66.8573 37.7287 67.1967 37.9082 67.5656 37.9797C67.9346 38.0513 68.3165 38.0116 68.6629 37.8658C69.0092 37.7199 69.3045 37.4745 69.5112 37.1606C69.7178 36.8467 69.8266 36.4785 69.8237 36.1027C69.8237 35.8542 69.7745 35.6082 69.679 35.3789C69.5835 35.1496 69.4435 34.9414 69.2672 34.7664C69.0908 34.5914 68.8816 34.4531 68.6515 34.3594C68.4214 34.2656 68.1751 34.2184 67.9266 34.2203V34.2203Z" fill="#3D3D3D"/>
</svg>
